# 3ds Max Wavefront OBJ Exporter v0.99 - (c)2007 guruware
# File Created: 23.06.2022 16:56:32

mtllib Back_do.mtl

#
# object Cylinder003
#

v  441.025787 -514.413696 172.547592
v  440.652649 -511.691040 172.547592
v  437.145111 -511.689301 183.747070
v  437.361908 -514.413696 183.747070
v  421.161469 -514.413696 134.756714
v  421.161469 -514.413696 114.772415
v  426.720917 -514.413696 114.772415
v  426.720917 -514.413696 134.756714
v  440.243134 -508.018799 155.069855
v  439.216217 -508.018799 172.547592
v  441.892273 -511.691040 155.069855
v  441.098572 -508.018799 134.756714
v  442.924866 -511.691010 134.756714
v  432.280365 -503.689453 155.074402
v  432.280365 -503.689453 172.554810
v  435.748291 -505.214996 172.553925
v  436.261749 -505.214996 155.074402
v  432.280365 -503.689453 134.779343
v  436.689453 -505.214996 134.779343
v  424.317596 -508.018799 155.069855
v  425.344513 -508.018799 172.547592
v  428.812439 -505.214996 172.553925
v  428.298981 -505.214996 155.074402
v  423.462158 -508.018799 134.756714
v  427.871277 -505.214996 134.779327
v  422.240051 -514.413696 155.069855
v  423.534943 -514.413696 172.547592
v  423.908081 -511.691040 172.547592
v  422.668457 -511.691040 155.069855
v  421.635864 -511.691010 134.756714
v  442.320679 -514.413696 155.069855
v  437.300507 -514.413696 155.074402
v  443.399261 -514.413696 134.756714
v  437.839813 -514.413696 134.779327
v  432.280365 -514.413696 186.921600
v  427.198822 -514.413696 183.747070
v  427.260223 -514.413696 155.074402
v  432.280365 -514.413696 155.074402
v  432.280365 -514.413696 134.779327
v  427.415619 -511.689301 183.747070
v  432.280365 -511.687561 186.921600
v  432.280365 -503.689453 114.772415
v  427.871277 -505.214996 114.772415
v  441.098572 -508.018799 114.772415
v  436.689453 -505.214996 114.772415
v  443.399261 -514.413696 114.772415
v  442.924866 -511.691010 114.772415
v  423.462158 -508.018799 114.772415
v  421.635864 -511.691010 114.772415
v  437.839813 -514.413696 114.772415
v  432.280365 -514.413696 114.772415
v  441.025787 -514.413696 56.997238
v  437.361908 -514.413696 45.797752
v  437.145111 -511.689270 45.797752
v  440.652649 -511.691010 56.997238
v  421.161469 -514.413696 94.788116
v  426.720917 -514.413696 94.788116
v  440.243134 -508.018799 74.474983
v  441.892273 -511.691010 74.474983
v  439.216217 -508.018799 56.997242
v  441.098572 -508.018799 94.788124
v  442.924866 -511.691010 94.788116
v  432.280365 -503.689423 74.470444
v  436.261749 -505.214966 74.470444
v  435.748291 -505.214966 56.990913
v  432.280365 -503.689423 56.990036
v  432.280365 -503.689453 94.765488
v  436.689453 -505.214966 94.765488
v  424.317596 -508.018799 74.474983
v  428.298981 -505.214966 74.470444
v  428.812439 -505.214966 56.990913
v  425.344513 -508.018799 56.997242
v  423.462158 -508.018799 94.788124
v  427.871277 -505.214966 94.765503
v  422.240051 -514.413696 74.474983
v  422.668457 -511.691010 74.474983
v  423.908081 -511.691010 56.997238
v  423.534943 -514.413696 56.997238
v  421.635864 -511.691010 94.788109
v  442.320679 -514.413696 74.474983
v  437.300507 -514.413696 74.470436
v  443.399261 -514.413696 94.788116
v  437.839813 -514.413696 94.765495
v  432.280365 -514.413696 42.623222
v  432.280365 -514.413696 74.470436
v  427.260223 -514.413696 74.470436
v  427.198822 -514.413696 45.797752
v  432.280365 -514.413696 94.765495
v  432.280365 -511.687531 42.623222
v  427.415619 -511.689270 45.797752
# 90 vertices

vn 0.758448 -0.626006 0.181310
vn 0.945147 0.243618 0.217597
vn 0.653575 0.414699 0.633139
vn 0.587719 -0.613540 0.527405
vn -0.771404 -0.635847 0.025171
vn -0.765309 -0.643663 -0.000000
vn 0.000000 -1.000000 -0.000000
vn 0.771187 0.634797 0.048000
vn 0.592918 0.440068 0.674380
vn 0.956110 0.284076 0.071796
vn 0.745037 0.666743 0.019334
vn 0.950028 0.310748 0.029716
vn 0.000042 1.000000 0.000000
vn 0.000027 0.960855 0.277050
vn 0.489778 0.834727 0.251690
vn 0.470657 0.882195 0.014667
vn -0.000000 1.000000 0.000000
vn 0.435532 0.900155 0.005682
vn -0.771187 0.634797 0.048000
vn -0.592918 0.440068 0.674380
vn -0.489778 0.834727 0.251690
vn -0.470657 0.882195 0.014667
vn -0.745037 0.666743 0.019334
vn -0.435532 0.900155 0.005682
vn -0.760197 -0.646953 0.059606
vn -0.758448 -0.626006 0.181310
vn -0.945147 0.243618 0.217597
vn -0.956110 0.284076 0.071796
vn -0.950028 0.310748 0.029716
vn 0.760197 -0.646953 0.059606
vn 0.771405 -0.635847 0.025171
vn 0.000000 -0.618216 0.786008
vn -0.587718 -0.613540 0.527405
vn -0.653575 0.414699 0.633139
vn -0.000000 0.416403 0.909180
vn 0.000000 1.000000 0.000000
vn -0.434748 0.900552 0.000000
vn 0.743226 0.669041 0.000000
vn 0.434759 0.900547 0.000000
vn 0.765309 -0.643663 -0.000000
vn 0.950167 0.311742 0.000000
vn -0.743205 0.669063 0.000000
vn -0.950167 0.311742 0.000000
vn 0.758448 -0.626006 -0.181311
vn 0.587719 -0.613540 -0.527405
vn 0.653575 0.414699 -0.633139
vn 0.945147 0.243618 -0.217597
vn -0.771404 -0.635847 -0.025171
vn 0.771187 0.634797 -0.047999
vn 0.956110 0.284076 -0.071796
vn 0.592918 0.440068 -0.674380
vn 0.745037 0.666743 -0.019334
vn 0.950028 0.310748 -0.029716
vn 0.470657 0.882195 -0.014667
vn 0.489778 0.834727 -0.251690
vn 0.000027 0.960856 -0.277050
vn 0.435532 0.900155 -0.005682
vn -0.771187 0.634797 -0.047999
vn -0.470657 0.882195 -0.014667
vn -0.489778 0.834727 -0.251690
vn -0.592918 0.440069 -0.674380
vn -0.745037 0.666743 -0.019334
vn -0.435532 0.900155 -0.005682
vn -0.760197 -0.646953 -0.059606
vn -0.956110 0.284076 -0.071796
vn -0.945147 0.243618 -0.217597
vn -0.758448 -0.626006 -0.181310
vn -0.950028 0.310748 -0.029716
vn 0.760197 -0.646953 -0.059606
vn 0.771405 -0.635847 -0.025171
vn 0.000000 -0.618216 -0.786009
vn -0.587718 -0.613540 -0.527405
vn -0.000000 0.416403 -0.909180
vn -0.653575 0.414699 -0.633138
# 74 vertex normals

vt 0.750000 1.000000 1.000000
vt 0.812500 1.000000 1.000000
vt 0.726333 1.000000 0.603553
vt 0.625000 1.000000 0.500000
vt 0.250000 0.600000 -0.200000
vt 0.250000 0.400197 0.199606
vt 0.279949 0.400197 0.311865
vt 0.311612 0.600000 0.041421
vt 0.875000 0.800000 1.000000
vt 0.875000 1.000000 1.000000
vt 0.812500 0.800000 1.000000
vt 0.875000 0.600000 1.000000
vt 0.812500 0.600000 1.000000
vt 0.000000 0.800000 1.000000
vt 0.000000 1.000000 1.000000
vt -0.062500 1.000000 1.000000
vt -0.062500 0.800000 1.000000
vt 0.000000 0.600000 1.000000
vt -0.062500 0.600000 1.000000
vt 0.125000 0.800000 1.000000
vt 0.125000 1.000000 1.000000
vt 0.062500 1.000000 1.000000
vt 0.062500 0.800000 1.000000
vt 0.125000 0.600000 1.000000
vt 0.062500 0.600000 1.000000
vt 0.250000 0.800000 1.000000
vt 0.250000 1.000000 1.000000
vt 0.187500 1.000000 1.000000
vt 0.187500 0.800000 1.000000
vt 0.250000 0.600000 1.000000
vt 0.187500 0.600000 1.000000
vt 0.623223 0.800000 0.882843
vt 0.529917 0.800000 0.512132
vt 0.496447 0.600000 0.765685
vt 0.434835 0.600000 0.524264
vt 0.500000 1.000000 -0.000000
vt 0.375000 1.000000 -0.500000
vt 0.343306 0.800000 -0.229289
vt 0.436612 0.800000 0.141421
vt 0.373223 0.600000 0.282843
vt 0.780330 1.000000 0.414214
vt 0.650888 1.000000 0.000000
vt 0.512944 1.000000 -0.250000
vt 0.640165 1.000000 0.207107
vt 0.000000 0.400215 1.000000
vt 0.062500 0.400215 1.000000
vt 0.250000 1.000000 -1.000000
vt 0.250000 0.800000 -0.600000
vt 0.521447 1.000000 -0.414213
vt 0.385723 1.000000 -0.707107
vt -0.125000 0.600000 1.000000
vt -0.125000 0.400197 1.000000
vt -0.062500 0.400215 1.000000
vt 0.827665 1.000000 0.707107
vt -0.125000 1.000000 1.000000
vt -0.125000 0.800000 1.000000
vt 0.750000 0.600000 1.000000
vt 0.750000 0.400197 1.000000
vt 0.812500 0.400197 1.000000
vt 0.125000 0.400197 1.000000
vt 0.187500 0.400197 1.000000
vt 0.750000 0.800000 1.000000
vt 0.875000 0.400197 1.000000
vt 0.250000 0.400197 1.000000
vt 0.339855 0.400215 0.536383
vt 0.309903 0.400215 0.424112
vt 0.369795 0.400197 0.648644
# 67 texture coords

o Cylinder003
g Cylinder003
usemtl 01___Default
s 1
f 1/1/1 2/2/2 3/3/3 4/4/4 
s 2
f 5/5/5 6/6/6 7/7/7 8/8/7 
s 1
f 9/9/8 10/10/9 2/2/2 11/11/10 
f 12/12/11 9/9/8 11/11/10 13/13/12 
f 14/14/13 15/15/14 16/16/15 17/17/16 
f 18/18/17 14/14/13 17/17/16 19/19/18 
f 20/20/19 21/21/20 22/22/21 23/23/22 
f 24/24/23 20/20/19 23/23/22 25/25/24 
f 26/26/25 27/27/26 28/28/27 29/29/28 
f 5/30/5 26/26/25 29/29/28 30/31/29 
s 2
f 31/32/30 1/1/1 4/4/4 32/33/7 
f 33/34/31 31/32/30 32/33/7 34/35/7 
f 35/36/32 36/37/33 37/38/7 38/39/7 
f 38/39/7 37/38/7 8/8/7 39/40/7 
s 1
f 15/41/14 22/42/21 40/43/34 41/44/35 
f 25/25/24 18/18/17 42/45/36 43/46/37 
f 22/22/21 15/15/14 14/14/13 23/23/22 
f 23/23/22 14/14/13 18/18/17 25/25/24 
s 2
f 36/37/33 27/47/26 26/48/25 37/38/7 
f 37/38/7 26/48/25 5/5/5 8/8/7 
s 1
f 22/42/21 21/49/20 28/50/27 40/43/34 
f 19/19/18 12/51/11 44/52/38 45/53/39 
f 16/54/15 15/41/14 41/44/35 3/3/3 
f 16/16/15 10/55/9 9/56/8 17/17/16 
f 17/17/16 9/56/8 12/51/11 19/19/18 
s 2
f 4/4/4 35/36/32 38/39/7 32/33/7 
f 32/33/7 38/39/7 39/40/7 34/35/7 
s 1
f 13/13/12 33/57/31 46/58/40 47/59/41 
f 30/31/29 24/24/23 48/60/42 49/61/43 
f 2/2/2 10/10/9 16/54/15 3/3/3 
f 2/2/2 1/1/1 31/62/30 11/11/10 
f 11/11/10 31/62/30 33/57/31 13/13/12 
f 28/28/27 21/21/20 20/20/19 29/29/28 
f 29/29/28 20/20/19 24/24/23 30/31/29 
f 40/43/34 36/37/33 35/36/32 41/44/35 
f 28/50/27 27/47/26 36/37/33 40/43/34 
f 41/44/35 35/36/32 4/4/4 3/3/3 
f 44/63/38 12/12/11 13/13/12 47/59/41 
f 42/45/36 18/18/17 19/19/18 45/53/39 
f 48/60/42 24/24/23 25/25/24 43/46/37 
f 6/64/6 5/30/5 30/31/29 49/61/43 
s 2
f 50/65/7 34/35/7 39/40/7 51/66/7 
f 51/66/7 39/40/7 8/8/7 7/7/7 
f 46/67/40 33/34/31 34/35/7 50/65/7 
s 1
f 52/1/44 53/4/45 54/3/46 55/2/47 
s 2
f 56/5/48 57/8/7 7/7/7 6/6/6 
s 1
f 58/9/49 59/11/50 55/2/47 60/10/51 
f 61/12/52 62/13/53 59/11/50 58/9/49 
f 63/14/13 64/17/54 65/16/55 66/15/56 
f 67/18/17 68/19/57 64/17/54 63/14/13 
f 69/20/58 70/23/59 71/22/60 72/21/61 
f 73/24/62 74/25/63 70/23/59 69/20/58 
f 75/26/64 76/29/65 77/28/66 78/27/67 
f 56/30/48 79/31/68 76/29/65 75/26/64 
s 2
f 80/32/69 81/33/7 53/4/45 52/1/44 
f 82/34/70 83/35/7 81/33/7 80/32/69 
f 84/36/71 85/39/7 86/38/7 87/37/72 
f 85/39/7 88/40/7 57/8/7 86/38/7 
s 1
f 66/41/56 89/44/73 90/43/74 71/42/60 
f 74/25/63 43/46/37 42/45/36 67/18/17 
f 71/22/60 70/23/59 63/14/13 66/15/56 
f 70/23/59 74/25/63 67/18/17 63/14/13 
s 2
f 87/37/72 86/38/7 75/48/64 78/47/67 
f 86/38/7 57/8/7 56/5/48 75/48/64 
s 1
f 71/42/60 90/43/74 77/50/66 72/49/61 
f 68/19/57 45/53/39 44/52/38 61/51/52 
f 65/54/55 54/3/46 89/44/73 66/41/56 
f 65/16/55 64/17/54 58/56/49 60/55/51 
f 64/17/54 68/19/57 61/51/52 58/56/49 
s 2
f 53/4/45 81/33/7 85/39/7 84/36/71 
f 81/33/7 83/35/7 88/40/7 85/39/7 
s 1
f 62/13/53 47/59/41 46/58/40 82/57/70 
f 79/31/68 49/61/43 48/60/42 73/24/62 
f 55/2/47 54/3/46 65/54/55 60/10/51 
f 55/2/47 59/11/50 80/62/69 52/1/44 
f 59/11/50 62/13/53 82/57/70 80/62/69 
f 77/28/66 76/29/65 69/20/58 72/21/61 
f 76/29/65 79/31/68 73/24/62 69/20/58 
f 90/43/74 89/44/73 84/36/71 87/37/72 
f 77/50/66 90/43/74 87/37/72 78/47/67 
f 89/44/73 54/3/46 53/4/45 84/36/71 
f 44/63/38 47/59/41 62/13/53 61/12/52 
f 42/45/36 45/53/39 68/19/57 67/18/17 
f 48/60/42 43/46/37 74/25/63 73/24/62 
f 6/64/6 49/61/43 79/31/68 56/30/48 
s 2
f 50/65/7 51/66/7 88/40/7 83/35/7 
f 51/66/7 7/7/7 57/8/7 88/40/7 
f 46/67/40 50/65/7 83/35/7 82/34/70 
# 88 polygons

